<svg xmlns="http://www.w3.org/2000/svg" xmlns:xlink="http://www.w3.org/1999/xlink" viewBox="0 0 77.75 172.57"><defs><style>.cls-1,.cls-4,.cls-6,.cls-7,.cls-8,.cls-9{fill:none;}.cls-2{clip-path:url(#clip-path);}.cls-3{fill:#fff;}.cls-4{stroke:#2b3a8a;stroke-miterlimit:1.4;stroke-width:0.65px;}.cls-5{fill:#e7c716;}.cls-6,.cls-7,.cls-8,.cls-9{stroke:#1a117f;stroke-linecap:round;}.cls-6,.cls-7,.cls-8{stroke-miterlimit:10;}.cls-6{stroke-width:2px;}.cls-7{stroke-width:2.31px;}.cls-8,.cls-9{stroke-width:3px;}.cls-9{stroke-linejoin:bevel;}</style><clipPath id="clip-path"><rect class="cls-1" x="17.18" y="139.26" width="43.38" height="22.5"/></clipPath></defs><title>Artboard 21</title><g id="hambo_2-2" data-name="hambo 2"><g class="cls-2"><path class="cls-3" d="M56.91,140.19a.71.71,0,0,0,.28.6,14,14,0,0,1,1.73,2.45.65.65,0,0,0,.6.37.71.71,0,0,0,.72-.65,1.24,1.24,0,0,0-.14-.58,13.52,13.52,0,0,0-1.9-2.52.86.86,0,0,0-.62-.28.7.7,0,0,0-.67.6m-3.12.74a.85.85,0,0,0,.23.55,15.55,15.55,0,0,1,1.57,2.1c.18.28.32.39.6.39a.71.71,0,0,0,.76-.65,1.21,1.21,0,0,0-.14-.6,10.73,10.73,0,0,0-1.76-2.17.76.76,0,0,0-.6-.25.68.68,0,0,0-.67.62m-4.23,10.64a2.62,2.62,0,0,1-2.73,2.77A2.27,2.27,0,0,1,44.31,152a2.57,2.57,0,0,1,2.77-2.5c1.48,0,2.47.83,2.47,2.08m9-6.57a.83.83,0,0,0-.95-.92l-2.45,0c-1.18,0-2.4,0-3.65,0v-2.24c0-.6-.3-.88-1-.88a.78.78,0,0,0-.88.83c0,.69,0,1.5,0,2.31-3.51.07-7.12.18-10.38.37a.82.82,0,0,0-.83.88v0a.83.83,0,0,0,.86.9h.09c3.35-.21,6.89-.35,10.29-.42,0,1.09,0,2.27,0,3.1A3.71,3.71,0,0,0,47,147.93c-2.64,0-4.55,1.71-4.55,4.14a3.88,3.88,0,0,0,4.12,4,3.55,3.55,0,0,0,3.84-2.68h.12v.44c0,2.73-2,4.67-6.17,5.43a.87.87,0,0,0-.74.92,1,1,0,0,0,0,.25.88.88,0,0,0,.92.76.79.79,0,0,0,.23,0,12.77,12.77,0,0,0,3.68-1.23,6.48,6.48,0,0,0,3.75-6.24,6.76,6.76,0,0,0-.67-3v-4.79h1.9c1.5,0,2.94,0,4.3,0a.75.75,0,0,0,.86-.81Zm-23.93,5.66c0,3-2,5.23-5.34,5.34h-.37a19.91,19.91,0,0,0,.88-6.45c0-1.27-.09-2.64-.21-3.91a5.09,5.09,0,0,1,5,5m-15.54,1.48a20,20,0,0,0,.25-2.1,43.69,43.69,0,0,1,.83-6.57v-.14a.9.9,0,0,0-.79-.92h-.14a.91.91,0,0,0-.92.83,50.52,50.52,0,0,0-.81,8.88c0,1.48.12,3.24.23,4.46,0,.62.37.88.86.88h.14c.62,0,.86-.39.88-1a12.15,12.15,0,0,1,3.08-7.93,8.39,8.39,0,0,1,5.06-2.75c.12,1.29.16,2.61.18,3.81a16.09,16.09,0,0,1-.88,6.24,4.6,4.6,0,0,1-1.39-.55,4.21,4.21,0,0,1-1.8-2.43.81.81,0,0,0-.79-.6,1.8,1.8,0,0,0-.32,0,.84.84,0,0,0-.58.83,1,1,0,0,0,.07.37,5.74,5.74,0,0,0,4,4,8.49,8.49,0,0,1-2.7,2.22.94.94,0,0,0-.58.86,1,1,0,0,0,.14.49.94.94,0,0,0,.81.44,1.24,1.24,0,0,0,.55-.14,10,10,0,0,0,3.72-3.44H29c4.79-.09,7.56-3.17,7.54-7.19a6.84,6.84,0,0,0-7.1-6.8c-.12-.83-.21-1.6-.3-2.33a.87.87,0,0,0-.88-.83.54.54,0,0,0-.18,0,.77.77,0,0,0-.83.76.64.64,0,0,0,0,.21c.12.76.25,1.55.32,2.34a9.67,9.67,0,0,0-5.48,2.77,11.42,11.42,0,0,0-2.87,5.36Z"/><path class="cls-4" d="M56.91,140.19a.71.71,0,0,0,.28.6,14,14,0,0,1,1.73,2.45.65.65,0,0,0,.6.37.71.71,0,0,0,.72-.65,1.24,1.24,0,0,0-.14-.58,13.52,13.52,0,0,0-1.9-2.52.86.86,0,0,0-.62-.28A.7.7,0,0,0,56.91,140.19Zm-3.12.74a.85.85,0,0,0,.23.55,15.55,15.55,0,0,1,1.57,2.1c.18.28.32.39.6.39a.71.71,0,0,0,.76-.65,1.21,1.21,0,0,0-.14-.6,10.73,10.73,0,0,0-1.76-2.17.76.76,0,0,0-.6-.25A.68.68,0,0,0,53.79,140.93Zm-4.23,10.64a2.62,2.62,0,0,1-2.73,2.77A2.27,2.27,0,0,1,44.31,152a2.57,2.57,0,0,1,2.77-2.5C48.56,149.48,49.55,150.31,49.55,151.56Zm9-6.57a.83.83,0,0,0-.95-.92l-2.45,0c-1.18,0-2.4,0-3.65,0v-2.24c0-.6-.3-.88-1-.88a.78.78,0,0,0-.88.83c0,.69,0,1.5,0,2.31-3.51.07-7.12.18-10.38.37a.82.82,0,0,0-.83.88v0a.83.83,0,0,0,.86.9h.09c3.35-.21,6.89-.35,10.29-.42,0,1.09,0,2.27,0,3.1A3.71,3.71,0,0,0,47,147.93c-2.64,0-4.55,1.71-4.55,4.14a3.88,3.88,0,0,0,4.12,4,3.55,3.55,0,0,0,3.84-2.68h.12v.44c0,2.73-2,4.67-6.17,5.43a.87.87,0,0,0-.74.92,1,1,0,0,0,0,.25.88.88,0,0,0,.92.76.79.79,0,0,0,.23,0,12.77,12.77,0,0,0,3.68-1.23,6.48,6.48,0,0,0,3.75-6.24,6.76,6.76,0,0,0-.67-3v-4.79h1.9c1.5,0,2.94,0,4.3,0a.75.75,0,0,0,.86-.81Zm-23.93,5.66c0,3-2,5.23-5.34,5.34h-.37a19.91,19.91,0,0,0,.88-6.45c0-1.27-.09-2.64-.21-3.91A5.09,5.09,0,0,1,34.62,150.66Zm-15.54,1.48a20,20,0,0,0,.25-2.1,43.69,43.69,0,0,1,.83-6.57v-.14a.9.9,0,0,0-.79-.92h-.14a.91.91,0,0,0-.92.83,50.52,50.52,0,0,0-.81,8.88c0,1.48.12,3.24.23,4.46,0,.62.37.88.86.88h.14c.62,0,.86-.39.88-1a12.15,12.15,0,0,1,3.08-7.93,8.39,8.39,0,0,1,5.06-2.75c.12,1.29.16,2.61.18,3.81a16.09,16.09,0,0,1-.88,6.24,4.6,4.6,0,0,1-1.39-.55,4.21,4.21,0,0,1-1.8-2.43.81.81,0,0,0-.79-.6,1.8,1.8,0,0,0-.32,0,.84.84,0,0,0-.58.83,1,1,0,0,0,.07.37,5.74,5.74,0,0,0,4,4,8.49,8.49,0,0,1-2.7,2.22.94.94,0,0,0-.58.86,1,1,0,0,0,.14.49.94.94,0,0,0,.81.44,1.24,1.24,0,0,0,.55-.14,10,10,0,0,0,3.72-3.44H29c4.79-.09,7.56-3.17,7.54-7.19a6.84,6.84,0,0,0-7.1-6.8c-.12-.83-.21-1.6-.3-2.33a.87.87,0,0,0-.88-.83.54.54,0,0,0-.18,0,.77.77,0,0,0-.83.76.64.64,0,0,0,0,.21c.12.76.25,1.55.32,2.34a9.67,9.67,0,0,0-5.48,2.77,11.42,11.42,0,0,0-2.87,5.36Z"/></g></g><g id="hendi"><g id="Layer_4" data-name="Layer 4"><path class="cls-5" d="M59.68,40.39a6.49,6.49,0,0,0-5.1-1.46c-1.89.24-4.3,1-5.21,3.13-.85,2-1.11,9.34-.66,11.12.59,2.36.83,3.2,2.32,3.74,0,0,2,.94,2,1,.28.47,2.62.76,3.7.09a4.83,4.83,0,0,0,2.44-3.12l.44-2.75c0-.22.08-.43.13-.64.18-.68.51-1.85.58-2.3.25-1.69,1.1-5.88.43-7.38A4.16,4.16,0,0,0,59.68,40.39Z"/><path class="cls-5" d="M51.39,23.33s-1.52-.43-1.52,1,.76,1.71.76,1.71,1.33.26,1.87-.34a1.49,1.49,0,0,0,.06-1.88A2.48,2.48,0,0,0,51.39,23.33Z"/><path class="cls-5" d="M62.13,20a1.65,1.65,0,0,0-1.15.26c-.47.32-1,.85-.78,1.51A1.78,1.78,0,0,0,61.48,23s2.09.42,2.09-1c0-.18,0-.34,0-.48A1.66,1.66,0,0,0,62.13,20Z"/><path class="cls-5" d="M16,80c.08-.31-.48-2.73.2-3.24,1.37-1,1.54-1.39,2.75.49a4.11,4.11,0,0,1-.1,4.52,1.62,1.62,0,0,1,.77,1.84s.94.63.79,1.26c0,0,1.38-.32,1.85.31,0,0,2.86-.26,2,1.63a2.87,2.87,0,0,1-2.84,1.66s-2,.48-2.82-.46S16.47,86.39,16.31,85s-1.57-2.72-1-4S16,80,16,80Z"/><path class="cls-5" d="M33.31,95.53a3,3,0,0,0-4,0c-1.74,1.6-4.43,5-4.72,6s-.32,2.65.58,3c1,.39,2.91-.44,2.91-.44s-1.09,1.38-.22,2.25a4.3,4.3,0,0,0,2.62.87s-.65,2.32.29,2.83.94,0,.94,0-1.3,11.19-.86,11.7,1,.94,1.31.73.87,1.09,1.16-3.34,1.09-9.81,1.09-9.81.67-3,.87-4.36c.23-1.53.22-2.69-.51-2,0,0,.55-4.87-.89-3.7,0,0,2.23-2.62,1.46-3.27A2.32,2.32,0,0,0,33.31,95.53Z"/><path class="cls-5" d="M54.6,5.2a1.12,1.12,0,0,0-1.2,1.34A1.53,1.53,0,0,0,54.92,8s1.87-.21,1.73-1.06S56.15,4.84,54.6,5.2Z"/></g></g><g id="hendi-2" data-name="hendi"><path class="cls-6" d="M50.8,32.24c-1.69.1-3.44-.26-4.68.89a1.94,1.94,0,0,0-.7,1.71c.12.86.75,1.73,2.69,1.69,5.19-.13,6,0,8.24,0s5.81.19,7.22-.3c1.88-.65,1.32-3.83-.63-4A115.22,115.22,0,0,0,50.8,32.24Z"/><path class="cls-6" d="M48.11,60.78c-2.8-3.11-2.89-24.81-2.69-25.95"/><path class="cls-6" d="M48.11,60.78c.07.34.94,2.6,6.52,2.39,8.88-.34,10.17-28,10.1-28.33"/><path class="cls-6" d="M21.42,65.13C21.05,65.62,37,53.21,51.17,56c0,0,2.35.54,2.42,2.09a1.93,1.93,0,0,1-1.22,1.66,4.9,4.9,0,0,1-1.93.55L42.38,61a14.68,14.68,0,0,0-3.88,1.51l-3.28,1.81"/><path class="cls-6" d="M37,124.89s.36-21.79,1-28.9,9.23-10.14,9.23-10.14,7.62-3.83,7.71-5.71a1.74,1.74,0,0,0-1.5-1.87,4.78,4.78,0,0,0-2.69.1l-15.17,4.8a9.45,9.45,0,0,1-3.44.3c-2.46-.33-4.77-1.22-6-3.63a4.88,4.88,0,0,1,1.5-6.53A13,13,0,0,1,34.26,71c4.08-.41,13.13,1.17,16.88,4.66,3.94,3.67,5.26,2,5.26,2s1.37-.7-1.12-4.4a18.38,18.38,0,0,0-8.58-6.82,42.08,42.08,0,0,0-13.49-2.2c-4.83,0-11.72.2-14.08,1.65-3.76,2.31-6.72,4-6.61,16.38,0,0-.53,3.32,2.6,29.18,1.44,11.92,1.57,13.73,1.57,13.73"/><path class="cls-7" d="M28.07,73.32c.39.58,8.13,5,9.2,8.6"/><path class="cls-7" d="M32.91,71.66s8,5.56,8.71,8.79"/><path class="cls-7" d="M40.17,71.66c1.53,1.08,5,4.4,5.49,7.45"/><g id="Layer_3" data-name="Layer 3"><path class="cls-7" d="M44.25,91.4c4.19.11,8.25.17,10.82,0"/><line class="cls-8" x1="53.59" y1="63.97" x2="51.7" y2="77.56"/><line class="cls-9" x1="50.38" y1="84.81" x2="49.26" y2="90.59"/></g></g></svg>