<?xml version="1.0" encoding="UTF-8"?>
<svg width="35px" height="106px" viewBox="0 0 35 106" version="1.1" xmlns="http://www.w3.org/2000/svg" xmlns:xlink="http://www.w3.org/1999/xlink">
    <!-- Generator: Sketch 54.1 (76490) - https://sketchapp.com -->
    <title>Group 5</title>
    <desc>Created with Sketch.</desc>
    <g id="Page-1" stroke="none" stroke-width="1" fill="none" fill-rule="evenodd">
        <g id="Desktop-Copy-5" transform="translate(-129.000000, -3032.000000)">
            <g id="Group-5" transform="translate(146.500000, 3085.000000) rotate(-90.000000) translate(-146.500000, -3085.000000) translate(94.000000, 3068.000000)">
                <path d="M0.5,5.24086837 C0.5,9.23535493 0.537134016,13.6019986 0.75993811,16.5895934 C1.13334127,22.0024121 2.28862176,26.0713301 3.88951043,28.4986216 C5.15619297,30.4007581 6.83134968,31.1099242 8.39716734,31.1099242 C9.81238594,31.1099242 11.2647386,30.4772571 12.5314211,28.9079945 C13.7609696,27.3035837 14.728517,24.7646451 15.2504562,21.293246 C15.2875903,21.1815989 15.2875903,21.0699518 15.2875903,20.9562371 C15.2875903,20.0609924 14.728517,19.6123363 13.8723717,19.5006892 C13.7609696,19.4634735 13.6124335,19.4634735 13.4989685,19.4634735 C12.7170912,19.4634735 12.308617,19.8749139 12.1580179,20.8073742 C11.7866778,23.3835286 11.1162025,25.3249483 10.3343252,26.4827705 C9.77525192,27.3407994 9.06764262,27.6385252 8.21149726,27.6385252 C7.39042292,27.6385252 6.42287551,26.9293591 5.9380703,25.959683 C4.81992383,23.7205376 4.18658256,20.8445899 3.8152424,16.3662991 C3.70384036,14.6481737 3.66670634,12.4090283 3.66670634,10.0189524 L3.66670634,5.24086837 C3.66670634,4.30840799 3.36757121,3.67367333 2.17515671,3.67367333 C1.13334127,3.67367333 0.5,4.27119228 0.5,5.24086837 L0.5,5.24086837 Z M21.843807,5.83838732 C21.3590018,6.0616816 21.0619297,6.54755341 21.0619297,7.07064094 C21.0619297,7.36836664 21.1733317,7.7053756 21.3590018,8.00310131 C24.7113782,12.7439697 26.9827422,19.4634735 27.5046814,25.7343212 C27.5789495,26.6688491 28.1751567,27.1919366 29.0333651,27.1919366 C29.1447671,27.1919366 29.2933032,27.1919366 29.4418392,27.1547209 C30.3743156,26.9665748 30.7456558,26.3318401 30.7456558,25.362164 L30.7456558,25.101654 C30.2237166,18.7170917 27.5789495,11.1767746 24.0037689,6.32425913 C23.6695628,5.80117161 23.2218916,5.57580979 22.7370864,5.57580979 C22.4400143,5.57580979 22.1408792,5.65230875 21.843807,5.83838732 L21.843807,5.83838732 Z M36.1837261,5.24086837 C36.1837261,9.23535493 36.2208601,13.6019986 36.4457272,16.5895934 C36.8170674,22.0024121 37.9723479,26.0713301 39.5732365,28.4986216 C40.8399191,30.4007581 42.5171388,31.1099242 44.0808934,31.1099242 C45.496112,31.1099242 46.9484647,30.4772571 48.2151472,28.9079945 C49.4446957,27.3035837 50.4143061,24.7646451 50.9341823,21.293246 C50.9713164,21.1815989 50.9713164,21.0699518 50.9713164,20.9562371 C50.9713164,20.0609924 50.4143061,19.6123363 49.5560978,19.5006892 C49.4446957,19.4634735 49.2961596,19.4634735 49.1847576,19.4634735 C48.4028803,19.4634735 47.9923431,19.8749139 47.843807,20.8073742 C47.4704039,23.3835286 46.7999286,25.3249483 46.0180513,26.4827705 C45.458978,27.3407994 44.7513687,27.6385252 43.8952234,27.6385252 C43.076212,27.6385252 42.1066016,26.9293591 41.6217964,25.959683 C40.5057129,23.7205376 39.8723717,20.8445899 39.4989685,16.3662991 C39.3875665,14.6481737 39.3504324,12.4090283 39.3504324,10.0189524 L39.3504324,5.24086837 C39.3504324,4.30840799 39.0533603,3.67367333 37.8609458,3.67367333 C36.8170674,3.67367333 36.1837261,4.27119228 36.1837261,5.24086837 L36.1837261,5.24086837 Z M57.5275331,5.83838732 C57.0427279,6.0616816 56.7456558,6.54755341 56.7456558,7.07064094 C56.7456558,7.36836664 56.8570578,7.7053756 57.0427279,8.00310131 C60.3951043,12.7439697 62.6685313,19.4634735 63.1904705,25.7343212 C63.2647386,26.6688491 63.8609458,27.1919366 64.7170912,27.1919366 C64.8284932,27.1919366 64.9770293,27.1919366 65.1276283,27.1547209 C66.0580417,26.9665748 66.4293819,26.3318401 66.4293819,25.362164 L66.4293819,25.101654 C65.9095057,18.7170917 63.2647386,11.1767746 59.687495,6.32425913 C59.3532889,5.80117161 58.9056177,5.57580979 58.4228755,5.57580979 C58.1237404,5.57580979 57.8266683,5.65230875 57.5275331,5.83838732 L57.5275331,5.83838732 Z M80.5114259,9.68401103 C80.882766,9.27257064 81.0704991,8.82391454 81.0704991,8.4145417 C81.0704991,7.74259132 80.5856939,7.14507236 79.7666825,7.18228808 C79.8409506,5.42694693 79.8780846,3.67367333 79.9894866,1.91833218 L79.9894866,1.76946933 C79.9894866,0.985871813 79.4304134,0.537215713 78.611402,0.5 L78.5,0.5 C77.6438546,0.5 77.0847814,0.948656099 77.0476474,1.84390076 C76.9362453,3.78532047 76.8970483,5.65230875 76.8227803,7.40558236 C75.1476236,7.5172295 73.0619297,7.7053756 71.2733079,7.89145417 C70.5285646,7.92866988 70.0808934,8.52618884 70.0808934,9.34700207 L70.0808934,9.45864921 C70.1180275,10.205031 70.6028327,10.7653343 71.347576,10.7653343 L71.496112,10.7653343 C73.0990637,10.5792557 75.1476236,10.3931771 76.7485123,10.28153 C76.7113782,12.4090283 76.6742442,14.3876637 76.6371102,16.4407305 C74.0294771,19.2401792 71.6095771,22.0768436 69.9694914,24.1671261 C69.7095533,24.5041351 69.5610172,24.9135079 69.5610172,25.2877326 C69.5610172,25.6598897 69.7095533,26.0713301 70.0437594,26.4083391 C70.3428945,26.7060648 70.7142347,26.8549276 71.0876379,26.8549276 C71.496112,26.8549276 71.9066492,26.6688491 72.2037213,26.2946244 C73.2104658,25.0251551 74.4771483,23.3463129 75.5560978,22.0024121 C75.9295009,21.4793246 76.4885741,20.7329428 76.7856463,20.1726396 C76.6742442,20.9934528 76.6371102,21.8163336 76.6371102,22.5999311 C76.6371102,24.4669194 76.5999762,26.7804962 76.5999762,29.170572 L76.5999762,32.1188835 C76.5999762,32.9396968 77.3075855,33.5 78.0894628,33.5 C78.9456082,33.5 79.6181465,32.9769125 79.6181465,32.1188835 C79.5789495,27.0802895 79.5418154,22.4138525 79.5418154,17.6709166 C85.8752281,11.0279118 89.1904705,9.49586492 92.2808458,9.49586492 C95.9694914,9.49586492 97.9809172,12.8556168 97.9809172,18.3821502 C97.9809172,19.9493453 97.8695152,21.4793246 97.6446481,22.8232254 C95.7466873,21.7026189 93.5103944,20.9934528 91.3875665,20.9934528 C87.4018488,20.9934528 84.6085456,23.45796 84.6085456,26.7060648 C84.6085456,29.9541695 87.5503848,32.2677464 91.4989685,32.2677464 C95.113346,32.2677464 97.8695152,30.8121985 99.4704039,27.4896623 C100.363683,28.2732598 101.259026,29.2450034 102.003769,30.1774638 C102.263707,30.5516885 102.674244,30.7377671 103.084781,30.7377671 C103.456122,30.7377671 103.829525,30.5889042 104.089463,30.2518952 C104.349401,29.9541695 104.5,29.5799449 104.5,29.170572 C104.5,28.7963473 104.386535,28.4221227 104.089463,28.124397 C103.121915,26.9293591 101.743831,25.6598897 100.40288,24.6157822 C100.811354,22.9720882 101.034159,20.6957271 101.034159,18.6054445 C101.034159,10.80255 97.7952472,6.58476912 92.4314449,6.58476912 C88.7799333,6.58476912 85.3161549,8.34011027 80.4000238,13.1181943 C80.1380227,13.3414886 79.8780846,13.7157133 79.5046814,14.1995176 C79.5789495,13.4903515 79.6181465,12.8928325 79.6181465,12.4090283 C79.6181465,12.0348036 79.6181465,11.2884218 79.6552805,10.54204 L80.5114259,9.68401103 Z M97.0113068,25.5482426 C96.0808934,28.4221227 93.9209315,29.5427292 91.3132984,29.5427292 C89.0790685,29.5427292 87.4389828,28.3104755 87.4389828,26.7060648 C87.4389828,25.0251551 88.9284694,23.6440386 91.3132984,23.6440386 C93.4361263,23.6440386 95.2247481,24.2415575 97.0113068,25.5482426 L97.0113068,25.5482426 Z" id="Fill-1" fill="#FEFEFE"></path>
                <path d="M0.5,5.24086837 C0.5,9.23535493 0.537134016,13.6019986 0.75993811,16.5895934 C1.13334127,22.0024121 2.28862176,26.0713301 3.88951043,28.4986216 C5.15619297,30.4007581 6.83134968,31.1099242 8.39716734,31.1099242 C9.81238594,31.1099242 11.2647386,30.4772571 12.5314211,28.9079945 C13.7609696,27.3035837 14.728517,24.7646451 15.2504562,21.293246 C15.2875903,21.1815989 15.2875903,21.0699518 15.2875903,20.9562371 C15.2875903,20.0609924 14.728517,19.6123363 13.8723717,19.5006892 C13.7609696,19.4634735 13.6124335,19.4634735 13.4989685,19.4634735 C12.7170912,19.4634735 12.308617,19.8749139 12.1580179,20.8073742 C11.7866778,23.3835286 11.1162025,25.3249483 10.3343252,26.4827705 C9.77525192,27.3407994 9.06764262,27.6385252 8.21149726,27.6385252 C7.39042292,27.6385252 6.42287551,26.9293591 5.9380703,25.959683 C4.81992383,23.7205376 4.18658256,20.8445899 3.8152424,16.3662991 C3.70384036,14.6481737 3.66670634,12.4090283 3.66670634,10.0189524 L3.66670634,5.24086837 C3.66670634,4.30840799 3.36757121,3.67367333 2.17515671,3.67367333 C1.13334127,3.67367333 0.5,4.27119228 0.5,5.24086837 Z M21.843807,5.83838732 C21.3590018,6.0616816 21.0619297,6.54755341 21.0619297,7.07064094 C21.0619297,7.36836664 21.1733317,7.7053756 21.3590018,8.00310131 C24.7113782,12.7439697 26.9827422,19.4634735 27.5046814,25.7343212 C27.5789495,26.6688491 28.1751567,27.1919366 29.0333651,27.1919366 C29.1447671,27.1919366 29.2933032,27.1919366 29.4418392,27.1547209 C30.3743156,26.9665748 30.7456558,26.3318401 30.7456558,25.362164 L30.7456558,25.101654 C30.2237166,18.7170917 27.5789495,11.1767746 24.0037689,6.32425913 C23.6695628,5.80117161 23.2218916,5.57580979 22.7370864,5.57580979 C22.4400143,5.57580979 22.1408792,5.65230875 21.843807,5.83838732 Z M36.1837261,5.24086837 C36.1837261,9.23535493 36.2208601,13.6019986 36.4457272,16.5895934 C36.8170674,22.0024121 37.9723479,26.0713301 39.5732365,28.4986216 C40.8399191,30.4007581 42.5171388,31.1099242 44.0808934,31.1099242 C45.496112,31.1099242 46.9484647,30.4772571 48.2151472,28.9079945 C49.4446957,27.3035837 50.4143061,24.7646451 50.9341823,21.293246 C50.9713164,21.1815989 50.9713164,21.0699518 50.9713164,20.9562371 C50.9713164,20.0609924 50.4143061,19.6123363 49.5560978,19.5006892 C49.4446957,19.4634735 49.2961596,19.4634735 49.1847576,19.4634735 C48.4028803,19.4634735 47.9923431,19.8749139 47.843807,20.8073742 C47.4704039,23.3835286 46.7999286,25.3249483 46.0180513,26.4827705 C45.458978,27.3407994 44.7513687,27.6385252 43.8952234,27.6385252 C43.076212,27.6385252 42.1066016,26.9293591 41.6217964,25.959683 C40.5057129,23.7205376 39.8723717,20.8445899 39.4989685,16.3662991 C39.3875665,14.6481737 39.3504324,12.4090283 39.3504324,10.0189524 L39.3504324,5.24086837 C39.3504324,4.30840799 39.0533603,3.67367333 37.8609458,3.67367333 C36.8170674,3.67367333 36.1837261,4.27119228 36.1837261,5.24086837 Z M57.5275331,5.83838732 C57.0427279,6.0616816 56.7456558,6.54755341 56.7456558,7.07064094 C56.7456558,7.36836664 56.8570578,7.7053756 57.0427279,8.00310131 C60.3951043,12.7439697 62.6685313,19.4634735 63.1904705,25.7343212 C63.2647386,26.6688491 63.8609458,27.1919366 64.7170912,27.1919366 C64.8284932,27.1919366 64.9770293,27.1919366 65.1276283,27.1547209 C66.0580417,26.9665748 66.4293819,26.3318401 66.4293819,25.362164 L66.4293819,25.101654 C65.9095057,18.7170917 63.2647386,11.1767746 59.687495,6.32425913 C59.3532889,5.80117161 58.9056177,5.57580979 58.4228755,5.57580979 C58.1237404,5.57580979 57.8266683,5.65230875 57.5275331,5.83838732 Z M80.5114259,9.68401103 C80.882766,9.27257064 81.0704991,8.82391454 81.0704991,8.4145417 C81.0704991,7.74259132 80.5856939,7.14507236 79.7666825,7.18228808 C79.8409506,5.42694693 79.8780846,3.67367333 79.9894866,1.91833218 L79.9894866,1.76946933 C79.9894866,0.985871813 79.4304134,0.537215713 78.611402,0.5 L78.5,0.5 C77.6438546,0.5 77.0847814,0.948656099 77.0476474,1.84390076 C76.9362453,3.78532047 76.8970483,5.65230875 76.8227803,7.40558236 C75.1476236,7.5172295 73.0619297,7.7053756 71.2733079,7.89145417 C70.5285646,7.92866988 70.0808934,8.52618884 70.0808934,9.34700207 L70.0808934,9.45864921 C70.1180275,10.205031 70.6028327,10.7653343 71.347576,10.7653343 L71.496112,10.7653343 C73.0990637,10.5792557 75.1476236,10.3931771 76.7485123,10.28153 C76.7113782,12.4090283 76.6742442,14.3876637 76.6371102,16.4407305 C74.0294771,19.2401792 71.6095771,22.0768436 69.9694914,24.1671261 C69.7095533,24.5041351 69.5610172,24.9135079 69.5610172,25.2877326 C69.5610172,25.6598897 69.7095533,26.0713301 70.0437594,26.4083391 C70.3428945,26.7060648 70.7142347,26.8549276 71.0876379,26.8549276 C71.496112,26.8549276 71.9066492,26.6688491 72.2037213,26.2946244 C73.2104658,25.0251551 74.4771483,23.3463129 75.5560978,22.0024121 C75.9295009,21.4793246 76.4885741,20.7329428 76.7856463,20.1726396 C76.6742442,20.9934528 76.6371102,21.8163336 76.6371102,22.5999311 C76.6371102,24.4669194 76.5999762,26.7804962 76.5999762,29.170572 L76.5999762,32.1188835 C76.5999762,32.9396968 77.3075855,33.5 78.0894628,33.5 C78.9456082,33.5 79.6181465,32.9769125 79.6181465,32.1188835 C79.5789495,27.0802895 79.5418154,22.4138525 79.5418154,17.6709166 C85.8752281,11.0279118 89.1904705,9.49586492 92.2808458,9.49586492 C95.9694914,9.49586492 97.9809172,12.8556168 97.9809172,18.3821502 C97.9809172,19.9493453 97.8695152,21.4793246 97.6446481,22.8232254 C95.7466873,21.7026189 93.5103944,20.9934528 91.3875665,20.9934528 C87.4018488,20.9934528 84.6085456,23.45796 84.6085456,26.7060648 C84.6085456,29.9541695 87.5503848,32.2677464 91.4989685,32.2677464 C95.113346,32.2677464 97.8695152,30.8121985 99.4704039,27.4896623 C100.363683,28.2732598 101.259026,29.2450034 102.003769,30.1774638 C102.263707,30.5516885 102.674244,30.7377671 103.084781,30.7377671 C103.456122,30.7377671 103.829525,30.5889042 104.089463,30.2518952 C104.349401,29.9541695 104.5,29.5799449 104.5,29.170572 C104.5,28.7963473 104.386535,28.4221227 104.089463,28.124397 C103.121915,26.9293591 101.743831,25.6598897 100.40288,24.6157822 C100.811354,22.9720882 101.034159,20.6957271 101.034159,18.6054445 C101.034159,10.80255 97.7952472,6.58476912 92.4314449,6.58476912 C88.7799333,6.58476912 85.3161549,8.34011027 80.4000238,13.1181943 C80.1380227,13.3414886 79.8780846,13.7157133 79.5046814,14.1995176 C79.5789495,13.4903515 79.6181465,12.8928325 79.6181465,12.4090283 C79.6181465,12.0348036 79.6181465,11.2884218 79.6552805,10.54204 L80.5114259,9.68401103 Z M97.0113068,25.5482426 C96.0808934,28.4221227 93.9209315,29.5427292 91.3132984,29.5427292 C89.0790685,29.5427292 87.4389828,28.3104755 87.4389828,26.7060648 C87.4389828,25.0251551 88.9284694,23.6440386 91.3132984,23.6440386 C93.4361263,23.6440386 95.2247481,24.2415575 97.0113068,25.5482426 Z" id="Stroke-3" stroke="#2D3A8A" stroke-width="0.951"></path>
            </g>
        </g>
    </g>
</svg>