<?xml version="1.0" encoding="UTF-8"?>
<svg width="39px" height="75px" viewBox="0 0 39 75" version="1.1" xmlns="http://www.w3.org/2000/svg" xmlns:xlink="http://www.w3.org/1999/xlink">
    <!-- Generator: Sketch 54.1 (76490) - https://sketchapp.com -->
    <title>Group 5</title>
    <desc>Created with Sketch.</desc>
    <g id="Page-1" stroke="none" stroke-width="1" fill="none" fill-rule="evenodd">
        <g id="Desktop-Copy-5" transform="translate(-898.000000, -3225.000000)">
            <g id="Group-5" transform="translate(917.500000, 3262.500000) rotate(-270.000000) translate(-917.500000, -3262.500000) translate(881.000000, 3244.000000)">
                <path d="M2.68660653,21.2605791 C2.88350766,20.0852186 3.08259658,18.6366194 3.1219768,17.6976322 C3.20073726,15.5052163 3.59453952,11.1984527 4.54404052,6.57724768 L4.54404052,6.34304302 C4.54404052,5.56019224 4.02990979,4.89444379 3.20073726,4.77734146 L2.96226811,4.77734146 C2.1724758,4.77734146 1.50082417,5.2847849 1.38268349,6.18690658 C0.277849372,12.3716446 0.039380226,16.9147814 0,21.221545 C0.039380226,23.7284023 0.19908892,26.703669 0.39599005,28.7789825 C0.474750502,29.8350721 1.02826146,30.2666159 1.85743399,30.2666159 L2.09371535,30.2666159 C3.16135703,30.2275818 3.55515929,29.6008674 3.59453952,28.5426093 C3.71268019,23.9235729 5.25507238,19.0291291 8.84961189,15.1127066 C11.2189888,12.5689837 14.2600174,10.8449771 17.5001349,10.454636 C17.697036,12.6470519 17.7757964,14.8785019 17.8151767,16.9147814 C17.8151767,22.082464 17.2638535,25.333138 16.3143525,27.4865198 C15.4457997,27.2913492 14.6560074,26.9769077 13.9449756,26.5475325 C12.4441514,25.6454109 11.41589,24.1968116 10.8645668,22.4359395 C10.6260976,21.7701911 10.1535349,21.4167155 9.52126352,21.4167155 C9.36155483,21.4167155 9.1646537,21.4557496 8.96775257,21.4947837 C8.37486139,21.6921228 7.97887134,22.1995663 7.97887134,22.9043488 C7.97887134,23.101688 8.02043936,23.3358926 8.09919981,23.5310632 C8.77085144,25.7234791 10.2716756,27.7597585 12.166302,29.0131872 C12.9167141,29.5227992 13.8662151,29.9131403 14.8529086,30.2275818 C13.627746,31.7542492 11.8512602,33.2028484 10.2322954,33.9856992 C9.60002398,34.258938 9.24341415,34.8466182 9.24341415,35.4342984 C9.24341415,35.7097058 9.3221746,35.9829446 9.4818833,36.2561833 C9.83630533,36.7657953 10.3110558,37 10.8645668,37 C11.1796086,37 11.4946504,36.9219318 11.81188,36.7657953 C14.1812569,35.629469 16.6315821,33.3199508 18.1717865,30.9323643 L18.6837294,30.9323643 L19.5938502,30.9323643 C27.7696227,30.7762279 32.5105643,25.5673426 32.4711841,18.7537217 C32.4318039,12.4518814 27.4939611,7.28203024 20.3442623,7.24299613 C20.1473612,5.83343102 19.9876525,4.54096823 19.8301316,3.28970812 C19.7119909,2.38758645 19.1190997,1.87797445 18.3293074,1.87797445 C18.2505469,1.87797445 18.1324063,1.87797445 18.0142656,1.91917712 C17.143525,1.95821123 16.5922019,2.46565467 16.5922019,3.20947134 C16.5922019,3.32874223 16.5922019,3.44584457 16.6315821,3.5629469 C16.8284832,4.85540968 17.0647646,6.18690658 17.1829053,7.51840347 C13.3914646,8.02584691 10.3898163,9.78888759 7.82135044,12.2155081 C5.41259328,14.5250264 3.79362844,17.8928027 2.92288788,21.2996132 L2.68660653,21.2605791 Z M29.2310666,18.7537217 C29.2704468,23.8845387 25.835616,27.6036221 20.1079809,27.7987926 L19.4757095,27.7987926 C20.3442623,25.4112062 20.9371535,21.9263275 20.9765337,16.8757473 C20.9371535,14.7223655 20.8190128,12.4106787 20.6199239,10.2572969 C26.1506578,10.454636 29.1916864,14.8004337 29.2310666,18.7537217 L29.2310666,18.7537217 Z M70.1164923,9.16217325 C70.1164923,8.10391513 69.5629814,7.59647169 68.4975275,7.59647169 C67.1542242,7.59647169 65.7321605,7.55743758 64.3100968,7.55743758 C62.2951419,7.55743758 60.2014266,7.59647169 58.068331,7.6355058 L58.068331,3.83618568 C58.068331,2.81913023 57.5542003,2.34855234 56.4099859,2.34855234 C55.4211047,2.34855234 54.9091617,2.89719845 54.9091617,3.75811745 C54.9091617,4.9334779 54.948542,6.30400891 54.948542,7.67453991 C48.9430575,7.79164225 42.7822399,7.9868128 37.2121258,8.30125425 C36.302005,8.34028836 35.790062,8.9670027 35.790062,9.78888759 L35.790062,9.86695581 C35.8294423,10.805943 36.343573,11.3936233 37.251506,11.3936233 L37.4090269,11.3936233 C43.136662,11.0423163 49.1815267,10.805943 54.9879222,10.6888407 C54.9879222,12.5299496 54.9879222,14.5250264 55.0273024,15.9345915 C53.8809003,14.7613996 52.2619354,14.1346853 50.325741,14.1346853 C45.8232685,14.1346853 42.5437708,17.0318837 42.5437708,21.1434767 C42.5437708,25.0577306 45.4666587,27.8378267 49.5753289,27.8378267 C52.6973057,27.8378267 55.1060629,26.703669 56.1321365,23.2968585 L56.3312255,23.2968585 L56.3312255,24.0406752 C56.3312255,28.6618802 52.8548266,31.9494198 45.7838883,33.2418825 C44.994096,33.3589849 44.5193455,33.9856992 44.5193455,34.8075841 C44.5193455,34.9246864 44.5193455,35.0829914 44.5587257,35.2391279 C44.7162466,36.1000469 45.348518,36.5315907 46.1383103,36.5315907 C46.256451,36.5315907 46.4161597,36.5315907 46.5343004,36.4925566 C48.9036773,36.0610128 51.0367729,35.3562302 52.8154464,34.417243 C57.0028771,32.2248271 59.2147331,28.935119 59.2147331,23.8455046 C59.2147331,22.0043957 58.8581233,20.3215918 58.068331,18.7146876 L58.068331,10.6107725 L61.3084485,10.6107725 C63.8747265,10.6107725 66.3250517,10.6107725 68.6550484,10.6498066 C69.5629814,10.6498066 70.1164923,10.2182628 70.1164923,9.27927558 L70.1164923,9.16217325 Z M54.7494531,20.2825577 C54.7494531,23.0626539 52.8548266,24.9796624 50.0894596,24.9796624 C47.5997542,24.9796624 45.7838883,23.6091314 45.7838883,20.9873403 C45.7838883,18.5195171 47.8382234,16.7586449 50.5226421,16.7586449 C53.0517278,16.7586449 54.7494531,18.1682101 54.7494531,20.2825577 L54.7494531,20.2825577 Z M61.9801001,2.27048412 C61.9801001,2.62395968 62.137621,2.93623256 62.3739024,3.20947134 C63.4809243,4.4238659 64.2707166,5.56019224 65.0605089,6.77241824 C65.3755507,7.24299613 65.6140198,7.43816669 66.0865826,7.43816669 C66.8369946,7.43816669 67.3905056,6.93072324 67.3905056,6.34304302 C67.3905056,5.83343102 67.2723649,5.56019224 67.1542242,5.32381901 C66.4038121,4.03352479 65.3755507,2.85816434 64.1525759,1.64376978 C63.8353463,1.33149689 63.5596847,1.21439456 63.1243144,1.21439456 C62.492043,1.21439456 61.9801001,1.76087211 61.9801001,2.27048412 L61.9801001,2.27048412 Z M67.3117451,1.01705544 C67.3117451,1.48763334 67.4298858,1.68280389 67.7864956,2.03627945 C68.8519495,3.17043723 69.880211,4.69927324 70.7487637,6.18690658 C71.0244253,6.6162818 71.3022747,6.81362091 71.7748374,6.81362091 C72.5252495,6.81362091 73,6.18690658 73,5.71632868 C73,5.2847849 72.8818593,4.97251202 72.7637186,4.73830735 C72.0526868,3.48487868 70.5518626,1.44859923 69.5236012,0.470577892 C69.1691791,0.156136444 68.8913298,0 68.4581473,0 C67.9046363,0 67.3117451,0.509612003 67.3117451,1.01705544 L67.3117451,1.01705544 Z" id="Fill-1" fill="#FEFEFE"></path>
                <path d="M2.68660653,21.2605791 C2.88350766,20.0852186 3.08259658,18.6366194 3.1219768,17.6976322 C3.20073726,15.5052163 3.59453952,11.1984527 4.54404052,6.57724768 L4.54404052,6.34304302 C4.54404052,5.56019224 4.02990979,4.89444379 3.20073726,4.77734146 L2.96226811,4.77734146 C2.1724758,4.77734146 1.50082417,5.2847849 1.38268349,6.18690658 C0.277849372,12.3716446 0.039380226,16.9147814 0,21.221545 C0.039380226,23.7284023 0.19908892,26.703669 0.39599005,28.7789825 C0.474750502,29.8350721 1.02826146,30.2666159 1.85743399,30.2666159 L2.09371535,30.2666159 C3.16135703,30.2275818 3.55515929,29.6008674 3.59453952,28.5426093 C3.71268019,23.9235729 5.25507238,19.0291291 8.84961189,15.1127066 C11.2189888,12.5689837 14.2600174,10.8449771 17.5001349,10.454636 C17.697036,12.6470519 17.7757964,14.8785019 17.8151767,16.9147814 C17.8151767,22.082464 17.2638535,25.333138 16.3143525,27.4865198 C15.4457997,27.2913492 14.6560074,26.9769077 13.9449756,26.5475325 C12.4441514,25.6454109 11.41589,24.1968116 10.8645668,22.4359395 C10.6260976,21.7701911 10.1535349,21.4167155 9.52126352,21.4167155 C9.36155483,21.4167155 9.1646537,21.4557496 8.96775257,21.4947837 C8.37486139,21.6921228 7.97887134,22.1995663 7.97887134,22.9043488 C7.97887134,23.101688 8.02043936,23.3358926 8.09919981,23.5310632 C8.77085144,25.7234791 10.2716756,27.7597585 12.166302,29.0131872 C12.9167141,29.5227992 13.8662151,29.9131403 14.8529086,30.2275818 C13.627746,31.7542492 11.8512602,33.2028484 10.2322954,33.9856992 C9.60002398,34.258938 9.24341415,34.8466182 9.24341415,35.4342984 C9.24341415,35.7097058 9.3221746,35.9829446 9.4818833,36.2561833 C9.83630533,36.7657953 10.3110558,37 10.8645668,37 C11.1796086,37 11.4946504,36.9219318 11.81188,36.7657953 C14.1812569,35.629469 16.6315821,33.3199508 18.1717865,30.9323643 L18.6837294,30.9323643 L19.5938502,30.9323643 C27.7696227,30.7762279 32.5105643,25.5673426 32.4711841,18.7537217 C32.4318039,12.4518814 27.4939611,7.28203024 20.3442623,7.24299613 C20.1473612,5.83343102 19.9876525,4.54096823 19.8301316,3.28970812 C19.7119909,2.38758645 19.1190997,1.87797445 18.3293074,1.87797445 C18.2505469,1.87797445 18.1324063,1.87797445 18.0142656,1.91917712 C17.143525,1.95821123 16.5922019,2.46565467 16.5922019,3.20947134 C16.5922019,3.32874223 16.5922019,3.44584457 16.6315821,3.5629469 C16.8284832,4.85540968 17.0647646,6.18690658 17.1829053,7.51840347 C13.3914646,8.02584691 10.3898163,9.78888759 7.82135044,12.2155081 C5.41259328,14.5250264 3.79362844,17.8928027 2.92288788,21.2996132 L2.68660653,21.2605791 Z M29.2310666,18.7537217 C29.2704468,23.8845387 25.835616,27.6036221 20.1079809,27.7987926 L19.4757095,27.7987926 C20.3442623,25.4112062 20.9371535,21.9263275 20.9765337,16.8757473 C20.9371535,14.7223655 20.8190128,12.4106787 20.6199239,10.2572969 C26.1506578,10.454636 29.1916864,14.8004337 29.2310666,18.7537217 Z M70.1164923,9.16217325 C70.1164923,8.10391513 69.5629814,7.59647169 68.4975275,7.59647169 C67.1542242,7.59647169 65.7321605,7.55743758 64.3100968,7.55743758 C62.2951419,7.55743758 60.2014266,7.59647169 58.068331,7.6355058 L58.068331,3.83618568 C58.068331,2.81913023 57.5542003,2.34855234 56.4099859,2.34855234 C55.4211047,2.34855234 54.9091617,2.89719845 54.9091617,3.75811745 C54.9091617,4.9334779 54.948542,6.30400891 54.948542,7.67453991 C48.9430575,7.79164225 42.7822399,7.9868128 37.2121258,8.30125425 C36.302005,8.34028836 35.790062,8.9670027 35.790062,9.78888759 L35.790062,9.86695581 C35.8294423,10.805943 36.343573,11.3936233 37.251506,11.3936233 L37.4090269,11.3936233 C43.136662,11.0423163 49.1815267,10.805943 54.9879222,10.6888407 C54.9879222,12.5299496 54.9879222,14.5250264 55.0273024,15.9345915 C53.8809003,14.7613996 52.2619354,14.1346853 50.325741,14.1346853 C45.8232685,14.1346853 42.5437708,17.0318837 42.5437708,21.1434767 C42.5437708,25.0577306 45.4666587,27.8378267 49.5753289,27.8378267 C52.6973057,27.8378267 55.1060629,26.703669 56.1321365,23.2968585 L56.3312255,23.2968585 L56.3312255,24.0406752 C56.3312255,28.6618802 52.8548266,31.9494198 45.7838883,33.2418825 C44.994096,33.3589849 44.5193455,33.9856992 44.5193455,34.8075841 C44.5193455,34.9246864 44.5193455,35.0829914 44.5587257,35.2391279 C44.7162466,36.1000469 45.348518,36.5315907 46.1383103,36.5315907 C46.256451,36.5315907 46.4161597,36.5315907 46.5343004,36.4925566 C48.9036773,36.0610128 51.0367729,35.3562302 52.8154464,34.417243 C57.0028771,32.2248271 59.2147331,28.935119 59.2147331,23.8455046 C59.2147331,22.0043957 58.8581233,20.3215918 58.068331,18.7146876 L58.068331,10.6107725 L61.3084485,10.6107725 C63.8747265,10.6107725 66.3250517,10.6107725 68.6550484,10.6498066 C69.5629814,10.6498066 70.1164923,10.2182628 70.1164923,9.27927558 L70.1164923,9.16217325 Z M54.7494531,20.2825577 C54.7494531,23.0626539 52.8548266,24.9796624 50.0894596,24.9796624 C47.5997542,24.9796624 45.7838883,23.6091314 45.7838883,20.9873403 C45.7838883,18.5195171 47.8382234,16.7586449 50.5226421,16.7586449 C53.0517278,16.7586449 54.7494531,18.1682101 54.7494531,20.2825577 Z M61.9801001,2.27048412 C61.9801001,2.62395968 62.137621,2.93623256 62.3739024,3.20947134 C63.4809243,4.4238659 64.2707166,5.56019224 65.0605089,6.77241824 C65.3755507,7.24299613 65.6140198,7.43816669 66.0865826,7.43816669 C66.8369946,7.43816669 67.3905056,6.93072324 67.3905056,6.34304302 C67.3905056,5.83343102 67.2723649,5.56019224 67.1542242,5.32381901 C66.4038121,4.03352479 65.3755507,2.85816434 64.1525759,1.64376978 C63.8353463,1.33149689 63.5596847,1.21439456 63.1243144,1.21439456 C62.492043,1.21439456 61.9801001,1.76087211 61.9801001,2.27048412 Z M67.3117451,1.01705544 C67.3117451,1.48763334 67.4298858,1.68280389 67.7864956,2.03627945 C68.8519495,3.17043723 69.880211,4.69927324 70.7487637,6.18690658 C71.0244253,6.6162818 71.3022747,6.81362091 71.7748374,6.81362091 C72.5252495,6.81362091 73,6.18690658 73,5.71632868 C73,5.2847849 72.8818593,4.97251202 72.7637186,4.73830735 C72.0526868,3.48487868 70.5518626,1.44859923 69.5236012,0.470577892 C69.1691791,0.156136444 68.8913298,0 68.4581473,0 C67.9046363,0 67.3117451,0.509612003 67.3117451,1.01705544 Z" id="Stroke-3" stroke="#2D3A8A" stroke-width="0.951"></path>
            </g>
        </g>
    </g>
</svg>