<svg id="Layer_1" data-name="Layer 1" xmlns="http://www.w3.org/2000/svg" viewBox="0 0 1354 744"><defs><style>.cls-1{fill:#2d3a8a;}.cls-2{fill:#b03d28;}</style></defs><title>Artboard 1 copy 21</title><path class="cls-1" d="M358.84,318.54v56.33H340V318.54l-52.85-73.77H310l39.76,55.11L389,244.77h23.54Z"/><path class="cls-1" d="M617.13,358.66C606,373.31,585.22,377.5,567.77,377.5c-18.14,0-38.37-5.76-49-21.45-6.63-9.77-7.33-19-7.33-30.52V244.77h18.84v80.75c0,9.07.52,16.57,7.33,23.37,8.2,8.2,22.15,9.59,33.14,9.59,23.89,0,37-7.33,37-33V244.77h18.66v80.75C626.38,338.78,625.5,347.85,617.13,358.66Z"/><path class="cls-1" d="M732.58,374.88l-6.1-13.08,83-97.84H733.8V244.77H833l6.8,12.91-83.37,97.84h84.41v19.36Z"/><path class="cls-1" d="M1047,358.66c-11.16,14.65-31.92,18.84-49.36,18.84-18.14,0-38.37-5.76-49-21.45-6.63-9.77-7.33-19-7.33-30.52V244.77h18.84v80.75c0,9.07.52,16.57,7.33,23.37,8.2,8.2,22.15,9.59,33.14,9.59,23.89,0,37-7.33,37-33V244.77h18.66v80.75C1056.28,338.78,1055.41,347.85,1047,358.66Z"/><path class="cls-1" d="M527.18,165.32l-4.77-7.72h-6v7.72h-3.83V146.45h12.9a5.51,5.51,0,0,1,3.61,1,5.71,5.71,0,0,1,2.33,4.66c0,2.84-1.6,4.63-4.23,5.47l4.77,7.72Zm-2.37-15.08h-8.42v3.61h9.07a1.88,1.88,0,0,0,2.11-1.82C527.58,150.34,526.12,150.24,524.81,150.24Z"/><path class="cls-1" d="M553.78,165.32V146.45h16.69v3.79h-13v3.46h6.85v3.75H557.5v4.08h13.41v3.79Z"/><path class="cls-1" d="M600.25,157.71v7.62h-3.72v-7.62l-7.94-11.26h4.74l5,7.43,5.17-7.43H608Z"/><path class="cls-1" d="M642.05,165.32l-5.9-9.33-3.61,3.5v5.83h-3.75V146.45h3.75v7.8l7.91-7.8h5.1l-6.63,6.71,7.69,12.17Z"/><path class="cls-1" d="M671.32,165.94c-3.93,0-6.45-1.64-8.38-5l3.21-2.19c1.31,2.26,2.77,3.39,5.47,3.39,2.41,0,4.7-1.17,4.7-3.86V146.45H680v11.81C680,163.35,676.06,165.94,671.32,165.94Z"/><path class="cls-1" d="M719.94,165.32l-1.9-4H707l-1.89,4h-4.3L710,146.45h5l9.26,18.88Zm-7.43-15.19-3.64,7.47h7.29Z"/><path class="cls-1" d="M754.3,165.32h-4.85l-8.93-18.87h4.23l7.1,15,7.25-15h4.26Z"/><path class="cls-1" d="M786.27,144.19H783l2.92-4.45h4.26Zm-2.33,21.13V146.45h3.72v18.88Z"/><path class="cls-1" d="M826.32,165.32l-5.9-9.33-3.61,3.5v5.83h-3.75V146.45h3.75v7.8l7.91-7.8h5.1l-6.63,6.71,7.69,12.17Z"/><path class="cls-1" d="M571.06,586.76h-3.32l2.92-4.45h4.26Zm-2.33,21.13V589h3.72v18.88Z"/><path class="cls-1" d="M605.06,608.55c-4.7,0-6.74-.66-10.6-3.35l1.75-3.39a15.58,15.58,0,0,0,10.09,2.92c1.64,0,4.74-.51,4.74-2.7,0-1.53-1.64-1.82-2.84-1.9-1.89-.11-3.75-.07-5.65-.15-3.46-.15-6.89-1.86-6.89-5.79,0-4.74,5.07-5.79,8.85-5.79a17.82,17.82,0,0,1,9.11,2.48l-1.71,3.35a16.94,16.94,0,0,0-8.31-2.08c-1.35,0-4.15.36-4.15,2.19,0,1.53,2.22,1.79,3.35,1.82,1.64.07,3.28,0,4.92.11,3.79.15,7.14,1.64,7.14,5.94C614.86,607.46,609.21,608.55,605.06,608.55Z"/><path class="cls-1" d="M637.13,607.89V589H641v15h10.75v3.86Z"/><path class="cls-1" d="M687,607.89l-1.89-4H674l-1.89,4h-4.3L677,589h5l9.26,18.88Zm-7.43-15.19-3.64,7.47h7.29Z"/><path class="cls-1" d="M726.61,607.89,716.11,595.1v12.79h-3.75V589h3.75l10.49,12.75V589h3.75v18.88Z"/><path class="cls-1" d="M766.15,607.89H755.91V589h10.24c5.72,0,9.55,3.24,9.55,9.29C775.7,604.18,771.91,607.89,766.15,607.89Zm0-15.08h-6.3v11.3h6.3c3.61,0,5.72-2.11,5.72-5.72S769.76,592.81,766.15,592.81Z"/><path class="cls-2" d="M180.5,512.41a29.49,29.49,0,0,0,7.78.81H165.35a47.74,47.74,0,0,0,5.43-.24,7.05,7.05,0,0,0,3.4-1.25,3.71,3.71,0,0,0,1.38-3.2V493.21a19,19,0,0,0-2.47-6.72,20.32,20.32,0,0,0-6.44-6.84,20.6,20.6,0,0,0-21.47.12,20.16,20.16,0,0,0-6.48,7.13,16.53,16.53,0,0,0-2.19,6.72v14.9a3.64,3.64,0,0,0,2.83,3.89,29.49,29.49,0,0,0,7.78.81H124.2a47.73,47.73,0,0,0,5.43-.24,7.05,7.05,0,0,0,3.4-1.25,3.71,3.71,0,0,0,1.38-3.2l-.08-47.3a3.6,3.6,0,0,0-1.38-3.16,7.27,7.27,0,0,0-3.36-1.21q-2-.24-5.55-.32h23a54.68,54.68,0,0,0-6,.24,6.6,6.6,0,0,0-3.36,1.26,3.81,3.81,0,0,0-1.3,3.2l.08,26a15,15,0,0,1,3.32-4.9,23,23,0,0,1,6.76-4.86,21,21,0,0,1,9.44-2.07,20.65,20.65,0,0,1,9.44,2.11,23.65,23.65,0,0,1,6.76,4.9,15.42,15.42,0,0,1,3.32,4.82l-.08-26a3.6,3.6,0,0,0-1.38-3.16,7.27,7.27,0,0,0-3.36-1.21q-2-.24-5.55-.32h23a54.69,54.69,0,0,0-6,.24,6.6,6.6,0,0,0-3.36,1.26,3.81,3.81,0,0,0-1.3,3.2l.08,47.3A3.64,3.64,0,0,0,180.5,512.41Z"/><path class="cls-2" d="M251.37,509.57l.08-.41,18.14-47.3a7,7,0,0,0,.49-2.19,2.48,2.48,0,0,0-1.86-2.51,19.19,19.19,0,0,0-5.83-.65h19.84q-3.32.08-5,.28a6.39,6.39,0,0,0-3.08,1.21,6.73,6.73,0,0,0-2.19,3.2l-20.57,53.62L231,461.21a6.75,6.75,0,0,0-2.19-3.2,6.38,6.38,0,0,0-3.08-1.21q-1.7-.2-5-.28h19.84a19.18,19.18,0,0,0-5.83.65,2.48,2.48,0,0,0-1.86,2.51,7,7,0,0,0,.49,2.19l18,47.3Z"/><path class="cls-2" d="M342.33,484.38l-9.56.08q-2.75,0-3.85,1.3a5.63,5.63,0,0,0-1.09,3.73l.08,19a4.5,4.5,0,0,0,.32,1.94,2.83,2.83,0,0,0,1.13,1.13,5.37,5.37,0,0,0,2,.32q1.58.08,3,.12l1.94,0h4l11.42.08a10.33,10.33,0,0,0,4.82-.93,7.1,7.1,0,0,0,2.83-2.88q1.09-1.94,3-6.48l.73-1.7-4.29,13H314.71a32.09,32.09,0,0,0,8.18-.81,3.71,3.71,0,0,0,2.92-4l-.08-46.82a3.93,3.93,0,0,0-1.54-3.44,8.23,8.23,0,0,0-3.81-1.38,48.6,48.6,0,0,0-5.83-.28H358.7l1.46,14.66a65,65,0,0,0-1.82-9,5.89,5.89,0,0,0-2.43-3.52,11,11,0,0,0-5.14-.89l-7.45-.08q-2.35-.08-6.56-.08-6.4,0-7.45.57-1.46.89-1.46,3.48v16.52A23.27,23.27,0,0,0,328,481a2.34,2.34,0,0,0,.81,1.46,3.77,3.77,0,0,0,2.31.69q1.13.08,4.29.08l10.29-.08a4.64,4.64,0,0,0,4.13-1.78q1.21-1.78,1.05-6.56l1.7,18.79a34.31,34.31,0,0,0-1.34-5.83,4.77,4.77,0,0,0-1.74-2.51,7.23,7.23,0,0,0-3.16-.81Q345.33,484.38,342.33,484.38Z"/><path class="cls-2" d="M435.12,512.53q2.87-.69,2.88-3.12a3.93,3.93,0,0,0-.41-1.78l-3.73-8.42q-1.7-3.65-3-6a22.66,22.66,0,0,0-2.79-4,31.87,31.87,0,0,1-9.8,1.46,54.35,54.35,0,0,1-8.42-.73,44.7,44.7,0,0,0,6.48.49,29.7,29.7,0,0,0,11.1-1.94,11.94,11.94,0,0,0-4.78-2.67,24.84,24.84,0,0,0-6.88-.81q-2.43,0-5.18.24a73.22,73.22,0,0,1,8.5-.73,18.37,18.37,0,0,1,5.43.73,11.48,11.48,0,0,1,4.37,2.59,15.34,15.34,0,0,0,6.32-5.67,16.55,16.55,0,0,0,2.27-8.91q0-7.13-4.82-11.22t-13.24-4.66q-2.75-.16-5.51-.16a33.49,33.49,0,0,0-4,.16,3.53,3.53,0,0,0-1.9.85,2.42,2.42,0,0,0-.77,1.9l-.08,47.55q0,3.24,2.47,4.37a17.25,17.25,0,0,0,7,1.13H396.69a13.32,13.32,0,0,0,6.12-1.13q2.15-1.13,2.15-4.37l.08-47.55q0-1.86-2.23-2.75a21.88,21.88,0,0,0-7.41-.89h22q10.85,0,16.6,4.54a14.6,14.6,0,0,1,5.75,12.07,17.23,17.23,0,0,1-2.51,9.19,16,16,0,0,1-7.61,6.28,28.84,28.84,0,0,1,5.35,8.5l5.18,11.42a7.46,7.46,0,0,0,3.48,3.52,11.78,11.78,0,0,0,5.35,1.17H428.6A28.1,28.1,0,0,0,435.12,512.53Z"/><path class="cls-2" d="M505.55,513.22H483.11a42.48,42.48,0,0,0,5.18-.24,5.7,5.7,0,0,0,3.08-1.3,4.06,4.06,0,0,0,1.21-3.24l-.08-46.82a3.93,3.93,0,0,0-1.54-3.44,8.23,8.23,0,0,0-3.81-1.38,48.6,48.6,0,0,0-5.83-.28h44.14l1.46,14.66a65,65,0,0,0-1.82-9,5.89,5.89,0,0,0-2.43-3.52,11,11,0,0,0-5.14-.89l-7.45-.08q-2.35-.08-6.56-.08-6.4,0-7.45.57-1.46.89-1.46,3.48v16.52a23.27,23.27,0,0,0,.12,2.88,2.34,2.34,0,0,0,.81,1.46,3.77,3.77,0,0,0,2.31.69q1.13.08,4.29.08l10.29-.08a4.64,4.64,0,0,0,4.13-1.78q1.21-1.78,1.05-6.56l1.7,18.79a34.31,34.31,0,0,0-1.34-5.83,4.77,4.77,0,0,0-1.74-2.51,7.23,7.23,0,0,0-3.16-.81q-1-.08-4-.08l-9.56.08q-2.75,0-3.85,1.3a5.63,5.63,0,0,0-1.09,3.73l.08,19a3.82,3.82,0,0,0,1.38,3.24,7,7,0,0,0,3.52,1.3A56,56,0,0,0,505.55,513.22Z"/><path class="cls-2" d="M574.56,512.41a29.49,29.49,0,0,0,7.78.81H559.41a47.73,47.73,0,0,0,5.43-.24,7.05,7.05,0,0,0,3.4-1.25,3.71,3.71,0,0,0,1.38-3.2l-.08-47.3a3.6,3.6,0,0,0-1.38-3.16,7.27,7.27,0,0,0-3.36-1.21q-2-.24-5.55-.32h23a54.68,54.68,0,0,0-6,.24,6.6,6.6,0,0,0-3.36,1.26,3.81,3.81,0,0,0-1.3,3.2l.08,47.3A3.64,3.64,0,0,0,574.56,512.41Z"/><path class="cls-2" d="M642.84,474.9c.05-.49.08-1.21.08-2.19q0-7.94-3.4-11.83a11.55,11.55,0,0,0-9.15-3.89,11.72,11.72,0,0,0-8.59,3.36,11.87,11.87,0,0,0-3.32,9,7.91,7.91,0,0,0,1.7,5.06,17.14,17.14,0,0,0,4.13,3.73,70.49,70.49,0,0,0,6.64,3.69,82,82,0,0,1,8.22,4.62,18.34,18.34,0,0,1,5.35,5.43,14.47,14.47,0,0,1,2.15,8,14.78,14.78,0,0,1-2.43,7.49,15,15,0,0,1-5.75,5.1,16.84,16.84,0,0,1-7.78,1.82,21,21,0,0,1-8-1.74,15.23,15.23,0,0,1-6.32-4.42V491q.08,12.07,4,17t11.42,4.9a12.83,12.83,0,0,0,9.36-3.6,12.5,12.5,0,0,0,3.69-9.36,10.9,10.9,0,0,0-1.82-6.36,16,16,0,0,0-4.42-4.33,69.53,69.53,0,0,0-7.21-4q-4.7-2.35-7.57-4.17a15.94,15.94,0,0,1-4.82-4.78,12.76,12.76,0,0,1-1.94-7.17,13.5,13.5,0,0,1,1.82-7.09,12.3,12.3,0,0,1,4.9-4.66,14.38,14.38,0,0,1,6.8-1.62,16.88,16.88,0,0,1,11.1,4.29,12.32,12.32,0,0,1,1.86,2.35Z"/><path class="cls-2" d="M729.27,492.16a7.47,7.47,0,0,0-3.77-1.22q-2.47-.24-7.66-.24h21.38a20.31,20.31,0,0,0-3.6.24,3.57,3.57,0,0,0-2.11,1.26,4.93,4.93,0,0,0-.85,3.2l-.08,7a26.46,26.46,0,0,1-9.48,8.75,25.73,25.73,0,0,1-12.23,2.92,28.32,28.32,0,0,1-14.62-3.93,29.4,29.4,0,0,1-10.61-10.61,29.17,29.17,0,0,1,0-29.24,29.41,29.41,0,0,1,10.61-10.61,28.33,28.33,0,0,1,14.62-3.93,28.86,28.86,0,0,1,12.64,2.83,28.43,28.43,0,0,1,10,7.86l-2.43,15.23.24-1.78a63,63,0,0,0,.73-7.45,12.93,12.93,0,0,0-.89-5A11.14,11.14,0,0,0,728,463.4a26.41,26.41,0,0,0-7.94-4.74,25.61,25.61,0,0,0-9.15-1.66q-1,0-2.92.16a25.67,25.67,0,0,0-12.43,4.62,26.84,26.84,0,0,0-8.5,9.88,28.27,28.27,0,0,0-3,13q0,1.05.16,3.16a28.59,28.59,0,0,0,4.46,12.8,27,27,0,0,0,9.56,9,25.51,25.51,0,0,0,12.72,3.28q1,0,2.92-.16a22.43,22.43,0,0,0,9.36-3.24,20.78,20.78,0,0,0,7.41-7.78V495.4A3.79,3.79,0,0,0,729.27,492.16Z"/><path class="cls-2" d="M816,512.57q3-.65,3-2.92a2.86,2.86,0,0,0-.24-1.13L813.83,495a19.54,19.54,0,0,0-5.18-7.21q-3.64-3.32-10-3.32h-.16q-6.4,0-10,3.32a19.53,19.53,0,0,0-5.18,7.21l-4.94,13.53a2.88,2.88,0,0,0-.24,1.13q0,2.27,3,2.92a31.8,31.8,0,0,0,6.72.65H767.34a12.8,12.8,0,0,0,5.55-1.13,6.18,6.18,0,0,0,3.28-3.56l17.58-48.36q1.13-3.65-9.64-3.65h28.84q-10.69,0-9.64,3.65l17.58,48.36a6.17,6.17,0,0,0,3.28,3.56,12.79,12.79,0,0,0,5.55,1.13H809.3A31.81,31.81,0,0,0,816,512.57Zm-9.4-27.5a14.36,14.36,0,0,1,4.94,3.52L801.2,460.16a6.34,6.34,0,0,0-1.05-2,2.35,2.35,0,0,0-3.24,0,6.32,6.32,0,0,0-1.05,2l-10.37,28.43a14.36,14.36,0,0,1,4.94-3.52,18.55,18.55,0,0,1,8-1.58h.16A18.56,18.56,0,0,1,806.62,485.07Z"/><path class="cls-2" d="M909.74,471.18a65.34,65.34,0,0,0-1.82-9,5.89,5.89,0,0,0-2.43-3.52,11,11,0,0,0-5.14-.89h-7.29q-1.54,0-2.35,0a2.55,2.55,0,0,0-1.3.36q-1.46.89-1.46,3.48l.08,46.82a3.7,3.7,0,0,0,1.38,3.2,7,7,0,0,0,3.36,1.25,43,43,0,0,0,5.06.24H875.72a47.73,47.73,0,0,0,5.43-.24,7,7,0,0,0,3.4-1.25,3.71,3.71,0,0,0,1.38-3.2l-.08-46.82q0-2.59-1.46-3.48a3.11,3.11,0,0,0-1.26-.32q-.85-.08-2.39-.08h-7.29a10.55,10.55,0,0,0-4.9.93,7.09,7.09,0,0,0-2.83,2.88q-1.09,1.94-3,6.48l-.65,1.54,4.29-13h42Z"/><path class="cls-2" d="M990.74,512.57q3-.65,3-2.92a2.86,2.86,0,0,0-.24-1.13L988.55,495a19.54,19.54,0,0,0-5.18-7.21q-3.64-3.32-10-3.32h-.16q-6.4,0-10,3.32a19.53,19.53,0,0,0-5.18,7.21L953,508.52a2.88,2.88,0,0,0-.24,1.13q0,2.27,3,2.92a31.8,31.8,0,0,0,6.72.65H942.05a12.8,12.8,0,0,0,5.55-1.13,6.18,6.18,0,0,0,3.28-3.56l17.58-48.36q1.13-3.65-9.64-3.65h28.84q-10.69,0-9.64,3.65l17.58,48.36a6.17,6.17,0,0,0,3.28,3.56,12.79,12.79,0,0,0,5.55,1.13H984A31.81,31.81,0,0,0,990.74,512.57Zm-9.4-27.5a14.36,14.36,0,0,1,4.94,3.52l-10.37-28.43a6.34,6.34,0,0,0-1.05-2,2.35,2.35,0,0,0-3.24,0,6.32,6.32,0,0,0-1.05,2L960.2,488.59a14.36,14.36,0,0,1,4.94-3.52,18.55,18.55,0,0,1,8-1.58h.16A18.56,18.56,0,0,1,981.34,485.07Z"/><path class="cls-2" d="M1131.88,488.79a7.1,7.1,0,0,0,2.83-2.87q1.09-1.94,3-6.48l.73-1.7-4.37,13.2h-15.47v17.58a3.64,3.64,0,0,0,2.83,3.89,29.49,29.49,0,0,0,7.78.81h-22.92a47.73,47.73,0,0,0,5.43-.24,7.05,7.05,0,0,0,3.4-1.25,3.71,3.71,0,0,0,1.38-3.2V490.94H1093.6l24.95-35.07v5.35l.08,28.51h8.42A10.32,10.32,0,0,0,1131.88,488.79Zm-15.35.93-.08-28.27-18.22,25.35a3.92,3.92,0,0,0-.81,1.78q0,1.05,2,1.05Z"/><path class="cls-2" d="M1212.8,488.79a7.1,7.1,0,0,0,2.83-2.87q1.09-1.94,3-6.48l.73-1.7-4.37,13.2h-15.47v17.58a3.64,3.64,0,0,0,2.83,3.89,29.49,29.49,0,0,0,7.78.81h-22.92a47.73,47.73,0,0,0,5.43-.24,7.05,7.05,0,0,0,3.4-1.25,3.71,3.71,0,0,0,1.38-3.2V490.94h-22.92l24.95-35.07v5.35l.08,28.51H1208A10.32,10.32,0,0,0,1212.8,488.79Zm-15.35.93-.08-28.27-18.22,25.35a3.92,3.92,0,0,0-.81,1.78q0,1.05,2,1.05Z"/></svg>